<svg width="132" height="16" viewBox="0 0 132 16" fill="none" xmlns="http://www.w3.org/2000/svg">
<mask id="mask0_3101_7189" style="mask-type:luminance" maskUnits="userSpaceOnUse" x="0" y="0" width="132" height="16">
<path d="M132 0.890625H0V15.7478H132V0.890625Z" fill="white"/>
</mask>
<g mask="url(#mask0_3101_7189)">
<path d="M61.4655 2.19296C61.4655 1.39561 61.0239 0.890625 60.1926 0.890625H54.6331C51.6454 0.890625 50.3725 2.19296 50.3725 5.24944V11.3624C50.3725 12.5584 49.8528 13.1166 48.6319 13.1166H41.4097C40.6303 13.1166 40.1367 13.6215 40.1367 14.4455C40.1367 15.2162 40.6303 15.7478 41.4097 15.7478H48.6578C51.6195 15.7478 52.9703 14.4455 52.9703 11.389V5.27601C52.9703 3.97368 53.438 3.52186 54.685 3.52186H60.2446C61.0239 3.52186 61.4655 3.01688 61.4655 2.19296Z" fill="white"/>
<path d="M17.0683 0.890625H4.26058C1.68865 0.890625 0 2.64479 0 5.24944V11.3624C0 13.9936 1.71462 15.7211 4.26058 15.7211H14.4964C15.3537 15.7211 16.211 14.8441 16.211 13.9671V10.9106C16.211 10.1664 15.6654 9.60824 14.964 9.60824C14.1587 9.60824 13.665 10.1132 13.665 10.9106V13.0899H4.26058C3.40327 13.0899 2.54596 12.2129 2.54596 11.3358V5.22286C2.54596 4.34578 3.40327 3.4687 4.26058 3.4687H17.0683C17.9256 3.4687 18.7829 4.34578 18.7829 5.22286V14.3923C18.7829 15.0833 19.3025 15.6946 20.0558 15.6946C20.7833 15.6946 21.3289 15.2694 21.3289 14.3923V5.22286C21.3548 2.64478 19.6402 0.890625 17.0683 0.890625Z" fill="white"/>
<path d="M64.0377 11.389C64.0377 14.4455 65.2847 15.7478 68.2983 15.7478C73.572 15.7478 78.8198 15.7478 84.0935 15.7478C84.8729 15.7478 85.3666 15.2427 85.3666 14.4189C85.3666 13.6481 84.8729 13.1166 84.0935 13.1166H68.2722C66.9993 13.0899 66.5576 12.6382 66.5576 11.3624V5.24944C66.5576 3.94711 67.0252 3.49528 68.2722 3.49528H81.08C82.275 3.49528 82.7946 3.94711 82.7946 5.24944C82.7946 6.55176 82.3529 7.00358 81.08 7.00358H70.4285C69.5712 7.00358 69.1556 7.45542 69.1556 8.30591C69.1556 9.15641 69.5972 9.60824 70.4285 9.60824H81.08C84.0935 9.60824 85.3406 8.30591 85.3406 5.24944C85.3406 2.19296 84.0676 0.890625 81.08 0.890625H68.2722C65.2067 0.890625 64.0117 2.19296 64.0117 5.24944V11.389H64.0377Z" fill="white"/>
<path d="M87.94 11.389C87.94 14.4455 89.187 15.7478 92.2006 15.7478C97.4744 15.7478 101.293 15.7478 106.541 15.7478C107.32 15.7478 107.814 15.2427 107.814 14.4189C107.814 13.6481 107.372 13.1166 106.541 13.1166H92.1747C90.9016 13.0899 90.4601 12.6382 90.4601 11.3624C90.4601 9.31589 90.4601 7.29594 90.4601 5.24944C90.4601 3.97369 90.9016 3.52186 92.1747 3.49528C97.4484 3.49528 101.241 3.49528 106.515 3.49528C107.295 3.49528 107.788 2.9903 107.788 2.19296C107.788 1.39561 107.295 0.890625 106.515 0.890625H92.1747C89.1611 0.890625 87.9141 2.19296 87.9141 5.24944L87.94 11.389Z" fill="white"/>
<path d="M110.672 11.3624C110.672 14.4189 111.919 15.7478 114.933 15.7478H127.74C130.754 15.7478 132.001 14.4189 132.001 11.3624V5.24944C132.001 2.19296 130.754 0.890625 127.74 0.890625H114.933C111.919 0.890625 110.672 2.19296 110.672 5.24944V11.3624ZM114.933 13.1166C113.659 13.0899 113.218 12.6115 113.218 11.3624V5.24944C113.218 3.97369 113.633 3.54843 114.933 3.52186H127.74C129.013 3.54843 129.455 4.00026 129.455 5.27601C129.455 7.32251 129.455 9.34246 129.455 11.3624C129.455 12.6382 129.013 13.1166 127.74 13.1431L114.933 13.1166Z" fill="white"/>
<path d="M45.2547 2.19296C45.2547 1.39561 44.813 0.890625 43.9816 0.890625H38.4221C35.4346 0.890625 34.1615 2.19296 34.1615 5.24944V11.3624C34.1615 12.5584 33.642 13.1166 32.421 13.1166H25.1468C24.3675 13.1166 23.9258 13.6215 23.9258 14.4455C23.9258 15.2162 24.3934 15.7478 25.1468 15.7478H32.421C35.3826 15.7478 36.7335 14.4455 36.7335 11.389V5.27601C36.7335 3.97368 37.2011 3.52186 38.4481 3.52186H44.0077C44.813 3.52186 45.2547 3.01688 45.2547 2.19296Z" fill="white"/>
</g>
</svg>
